<?xml version="1.0" standalone="no"?>
<!DOCTYPE svg PUBLIC "-//W3C//DTD SVG 20010904//EN"
 "http://www.w3.org/TR/2001/REC-SVG-20010904/DTD/svg10.dtd">
<svg version="1.0" xmlns="http://www.w3.org/2000/svg"
 width="530.000000pt" height="530.000000pt" viewBox="0 0 530.000000 530.000000"
 preserveAspectRatio="xMidYMid meet">
<metadata>
Created by potrace 1.11, written by Peter Selinger 2001-2013
</metadata>
<g transform="translate(0.000000,530.000000) scale(0.100000,-0.100000)"
fill="#000000" stroke="none">
<path d="M2520 5248 l-62 -41 -44 21 c-25 12 -61 22 -81 22 -40 0 -114 -38
-136 -70 -14 -20 -14 -20 -58 0 -52 23 -119 26 -158 5 -64 -33 -119 -125 -145
-245 l-5 -25 -148 0 c-132 0 -154 -3 -205 -23 -79 -32 -160 -108 -198 -185
-69 -141 -58 -285 35 -455 19 -34 35 -64 35 -66 0 -1 -24 -19 -54 -40 -70 -48
-173 -155 -191 -200 -8 -19 -15 -54 -15 -76 0 -33 7 -48 41 -85 l41 -45 -27
-10 c-14 -5 -65 -10 -113 -10 -107 0 -142 -17 -167 -83 -16 -42 -16 -50 4
-168 20 -117 84 -409 135 -619 l23 -95 -184 -3 c-141 -2 -184 -5 -181 -15 3
-6 42 -110 88 -229 l83 -217 -83 -218 c-46 -120 -85 -224 -88 -230 -3 -10 132
-13 657 -13 635 0 661 -1 661 -18 0 -61 -49 -194 -135 -367 -113 -227 -143
-325 -152 -495 -20 -408 153 -712 488 -857 303 -131 680 -118 971 33 110 58
241 192 295 304 65 132 84 212 90 381 9 235 -24 389 -134 624 -53 112 -121
298 -137 373 l-8 32 692 0 c550 0 691 3 687 13 -122 311 -167 428 -167 439 0
7 38 113 85 236 47 123 85 226 85 228 0 2 -90 4 -200 4 -111 0 -200 4 -200 9
0 5 13 64 29 132 37 156 74 379 96 575 15 135 15 154 2 186 -25 59 -53 71
-183 76 -64 3 -114 9 -114 14 0 5 16 28 35 51 44 51 54 99 30 143 -18 34 -139
155 -208 209 l-38 30 36 60 c99 164 101 371 5 511 -85 123 -259 190 -439 168
l-81 -9 -25 75 c-32 94 -77 174 -112 197 -36 24 -104 21 -167 -6 -49 -21 -49
-21 -63 -1 -23 33 -96 70 -139 70 -21 0 -59 -9 -83 -21 l-44 -20 -31 30 c-43
40 -68 51 -119 51 -36 0 -57 -8 -107 -42z m-575 -664 c53 -31 129 -118 122
-139 -9 -22 -87 9 -141 57 -38 32 -46 46 -46 74 0 41 8 42 65 8z m1407 -79
c13 -49 -1 -130 -33 -182 -78 -126 -297 -163 -448 -76 l-45 26 40 34 c62 55
196 140 328 209 135 71 135 71 158 -11z m-1094 -98 c50 -32 92 -61 92 -63 0
-7 -75 30 -118 59 -23 16 -66 39 -95 52 -29 14 -66 39 -82 56 l-30 32 70 -38
c39 -21 112 -65 163 -98z m-347 81 c25 -24 64 -50 89 -59 24 -8 46 -21 48 -29
6 -18 -116 -7 -158 15 -27 14 -30 20 -30 65 0 28 1 50 3 50 2 0 23 -19 48 -42z
m29 -109 c19 -5 52 -11 73 -14 72 -11 38 -42 -65 -60 -33 -5 -39 -3 -51 22 -8
15 -18 39 -22 52 -6 21 -5 23 11 16 11 -4 35 -12 54 -16z m451 -86 c22 -14 39
-29 39 -34 0 -4 -17 -18 -37 -30 -29 -18 -38 -20 -41 -9 -3 7 -21 32 -42 54
-20 23 -35 49 -33 58 4 15 7 15 40 2 19 -9 53 -27 74 -41z m-328 -33 c-25 -42
-48 -46 -94 -16 -49 33 -49 46 -1 46 20 1 51 7 67 14 40 17 53 -2 28 -44z
m249 -23 c23 -32 17 -42 -29 -50 -31 -6 -33 -4 -34 21 0 15 -4 36 -8 47 -5 12
-4 25 2 33 11 14 35 -3 69 -51z m-178 27 c11 -10 14 -24 10 -42 -10 -40 -18
-44 -63 -32 l-41 11 32 39 c37 45 41 46 62 24z m86 -20 c20 -51 14 -64 -29
-64 l-39 0 10 33 c6 17 12 38 14 45 6 21 34 13 44 -14z m495 -148 c18 -13 18
-14 -5 -26 -28 -15 -155 -9 -172 8 -10 10 -10 15 2 22 23 15 153 12 175 -4z
m-105 -771 l0 -465 -60 0 c-55 0 -61 2 -73 28 -44 86 -91 426 -99 722 l-3 95
56 6 c58 6 138 39 159 65 7 7 14 14 16 14 2 0 4 -209 4 -465z m174 391 c22 -3
52 -7 66 -8 25 -3 25 -4 22 -78 -11 -265 -50 -580 -85 -694 l-23 -71 -62 -3
-62 -3 0 203 c0 112 -3 321 -7 466 l-6 262 58 -34 c31 -19 76 -38 99 -40z
m-1144 -291 l0 -194 -155 -138 c-139 -124 -155 -141 -155 -170 l0 -33 155 0
155 0 0 -90 0 -90 -250 0 -250 0 0 158 1 157 154 139 155 140 0 68 0 68 -60 0
-60 0 0 -50 0 -50 -90 0 -90 0 0 77 0 77 62 63 62 63 183 0 183 0 0 -195z
m580 55 l0 -141 -92 3 -93 3 -3 48 -3 47 -60 0 -59 0 0 -90 0 -90 155 0 155 0
-1 -212 -1 -213 -69 -63 -69 -62 -182 2 -183 3 -3 385 -3 385 73 67 73 68 183
0 182 0 0 -140z m1359 -252 l-1 -393 -69 -63 -69 -62 -197 2 -198 3 -3 387 -2
386 72 66 72 66 198 0 198 0 -1 -392z m569 2 l2 -384 -67 -68 -67 -68 -188 0
-188 0 0 145 0 146 93 -3 92 -3 3 -52 3 -53 60 0 59 0 0 95 0 95 -155 0 -155
0 0 204 0 205 76 66 75 65 177 -2 177 -3 3 -385z m-2862 -706 c33 -26 34 -28
34 -100 0 -61 -3 -75 -20 -87 -19 -13 -19 -14 10 -36 30 -21 30 -23 30 -116
l0 -95 -107 0 c-107 0 -107 0 -140 32 l-33 32 0 198 0 198 96 0 c87 0 98 -2
130 -26z m314 -19 l0 -45 -60 0 -60 0 0 -45 0 -45 61 0 60 0 -3 -42 -3 -43
-57 -3 -58 -3 0 -49 0 -49 63 -3 62 -3 3 -42 3 -43 -115 0 -116 0 0 230 0 230
110 0 110 0 0 -45z m310 -185 l0 -230 -50 0 -50 0 0 75 0 75 -35 0 -35 0 0
-75 0 -75 -50 0 -50 0 0 192 0 192 37 38 37 38 98 0 98 0 0 -230z m143 198 c3
-18 12 -91 19 -163 14 -144 14 -143 38 78 l12 117 49 0 c59 0 58 20 21 -255
l-27 -200 -77 -3 c-74 -3 -78 -2 -83 20 -6 31 -55 400 -55 421 0 14 10 17 49
17 47 0 49 -1 54 -32z m427 -13 l0 -45 -60 0 -60 0 0 -45 0 -45 61 0 60 0 -3
-42 -3 -43 -57 -3 -58 -3 0 -49 0 -49 63 -3 62 -3 3 -42 3 -43 -115 0 -116 0
0 230 0 230 110 0 110 0 0 -45z m305 -105 c0 -143 0 -145 -22 -148 -13 -2 -23
-5 -23 -7 0 -1 11 -33 25 -69 14 -37 25 -71 25 -76 0 -6 -22 -10 -48 -10 l-48
0 -25 77 c-34 105 -49 106 -49 4 l0 -81 -50 0 -50 0 0 199 0 199 36 31 c35 31
36 32 132 29 l97 -3 0 -145z m159 28 c10 -68 19 -124 20 -126 3 -2 12 44 42
216 6 28 10 32 39 32 18 0 35 -6 38 -13 3 -7 13 -61 23 -121 9 -59 20 -102 24
-94 4 7 13 54 20 103 17 130 14 125 66 125 35 0 44 -3 44 -17 0 -10 -16 -110
-35 -222 -19 -112 -35 -208 -35 -212 0 -5 -22 -9 -48 -9 l-48 0 -19 113 c-10
61 -21 120 -24 130 -4 10 -14 -28 -25 -90 -27 -165 -22 -153 -71 -153 -33 0
-45 4 -49 18 -5 16 -76 425 -76 437 0 3 22 5 48 5 l49 0 17 -122z m636 -108
l0 -230 -140 0 -140 0 0 223 c0 123 3 227 7 230 3 4 66 7 140 7 l133 0 0 -230z
m310 80 l0 -150 -25 0 -25 0 30 -81 29 -80 -51 3 -51 3 -26 74 c-36 103 -51
104 -51 2 l0 -81 -50 0 -50 0 0 199 0 199 38 31 c36 29 41 30 135 31 l97 0 0
-150z m178 87 c8 -32 18 -55 22 -50 5 4 15 31 23 58 l14 50 52 3 52 3 -7 -28
c-4 -15 -20 -65 -35 -111 l-28 -82 40 -111 c21 -60 39 -114 39 -120 0 -6 -22
-9 -52 -7 l-53 3 -20 57 c-11 31 -23 59 -26 63 -4 3 -15 -24 -24 -60 l-18 -65
-53 0 c-30 0 -54 4 -54 8 0 5 18 58 39 119 l40 110 -35 109 c-18 60 -34 110
-34 112 0 2 23 2 52 0 l52 -3 14 -58z"/>
<path d="M3052 4419 c-45 -27 -82 -55 -82 -60 0 -25 32 -67 60 -79 46 -19 117
-8 149 24 36 36 37 103 2 140 -14 14 -30 26 -36 26 -6 0 -48 -23 -93 -51z m34
-10 c10 -17 -13 -36 -27 -22 -12 12 -4 33 11 33 5 0 12 -5 16 -11z"/>
<path d="M1910 2985 l0 -95 55 0 55 0 0 95 0 95 -55 0 -55 0 0 -95z"/>
<path d="M3240 3165 l0 -275 75 0 75 0 0 275 0 275 -75 0 -75 0 0 -275z"/>
<path d="M3830 3350 l0 -90 60 0 60 0 0 90 0 90 -60 0 -60 0 0 -90z"/>
<path d="M1160 2415 c0 -43 1 -45 30 -45 29 0 30 2 30 45 0 43 -1 45 -30 45
-29 0 -30 -2 -30 -45z"/>
<path d="M1160 2230 l0 -50 40 0 40 0 0 50 0 50 -40 0 -40 0 0 -50z"/>
<path d="M1740 2395 l0 -65 35 0 35 0 0 65 0 65 -35 0 -35 0 0 -65z"/>
<path d="M2620 2400 l0 -60 35 0 35 0 0 60 0 60 -35 0 -35 0 0 -60z"/>
<path d="M3400 2320 l0 -140 40 0 40 0 0 140 0 140 -40 0 -40 0 0 -140z"/>
<path d="M3720 2400 l0 -60 35 0 35 0 0 60 0 60 -35 0 -35 0 0 -60z"/>
</g>
</svg>
